<svg xmlns="http://www.w3.org/2000/svg" id="Layer_1" data-name="Layer 1" viewBox="0 0 1029.2 217.5"><defs><style>.cls-1{fill:#1482a5;}.cls-2{fill:#fff;stroke:#000;stroke-miterlimit:10;stroke-width:8px;}</style></defs><title>enjoin-black</title><path class="cls-1" d="M21.3,49.8H277.8a6.59,6.59,0,0,0,6.6-6.6V15.6L301.6,0H21.3a6.59,6.59,0,0,0-6.6,6.6V43.2A6.73,6.73,0,0,0,21.3,49.8Z"></path><path class="cls-1" d="M21.4,217.5H277.7a6.59,6.59,0,0,0,6.6-6.6V183.4l17.2-15.6H21.4a6.59,6.59,0,0,0-6.6,6.6v36.5A6.59,6.59,0,0,0,21.4,217.5Z"></path><path class="cls-1" d="M22.4,130.8H191.6a7.17,7.17,0,0,0,7.2-7.2V94a7.17,7.17,0,0,0-7.2-7.2H0l15.3,16.8v20A7.21,7.21,0,0,0,22.4,130.8Z"></path><path class="cls-2" d="M379.3,211.5V115.1h11c15,23.1,50.2,77,56.3,87.4h.1c-.8-13.9-.7-28.1-.7-43.8V115.1h7.6v96.4H443.4c-14.3-22.3-50.1-78.3-57-88.9h-.1c.7,12.7.6,26.7.6,44.2v44.7Z"></path><path class="cls-2" d="M573.1,185.2c0,21.5-9.5,27.7-22.3,27.7a40.49,40.49,0,0,1-8.3-.8v-6.7a48.36,48.36,0,0,0,8.5.7c12.9,0,14.6-10,14.6-20.9V115.3H573l.1,69.9Z"></path><path class="cls-2" d="M752.1,162.6c0,26.3-14,50.2-43.8,50.2-27.1,0-43-21.9-43-49.6,0-27.3,15.3-49.6,43.9-49.6C735.7,113.8,752.1,134.5,752.1,162.6Zm-78.8.3c0,22.2,12.3,43.1,35.4,43.1,24.9,0,35.4-20.4,35.4-43.2,0-22.4-11.8-42.1-35.1-42.1C684.2,120.6,673.3,141.1,673.3,162.9Z"></path><path class="cls-2" d="M852.3,115.1v96.4h-7.4V115.1Z"></path><path class="cls-2" d="M950.9,211.5V115.1h11c15,23.1,50.2,77,56.3,87.4h.1c-.8-13.9-.7-28.1-.7-43.8V115.1h7.6v96.4H1015c-14.3-22.3-50.1-78.3-57-88.9h-.1c.7,12.7.6,26.7.6,44.2v44.7Z"></path></svg>