<svg xmlns="http://www.w3.org/2000/svg" xmlns:xlink="http://www.w3.org/1999/xlink" id="Layer_1" x="0px" y="0px" viewBox="0 0 98 98" style="enable-background:new 0 0 98 98;" xml:space="preserve"><style type="text/css">	.st0{fill:#1580A2;}	.st1{fill:#474747;}</style><path class="st0" d="M25.72,71.25c2.55,2.22,5.39,3.82,8.58,4.81c13.2,4.09,24.33-2.1,29.96-11.11c1.48-2.37,2.41-4.98,2.96-7.72 c0.49-2.44,2.57-4.17,4.97-4.19c2.52-0.02,4.6,1.68,5.14,4.17c0.19,0.88,0.04,1.74-0.15,2.6c-3.31,15.65-17,25.51-28.69,27.25 C26.07,90.42,11.22,75.62,7.48,60.29C4.53,48.15,7.57,32.17,22.15,22.21c7.34-5.02,15.4-6.97,24.22-5.95 c9.74,1.12,17.68,5.47,23.81,13.12c2.17,2.7,1.81,5.7-0.91,7.83C54.92,48.4,40.58,59.61,26.24,70.81 C26.07,70.94,25.91,71.09,25.72,71.25z M19.44,63.14c13.15-10.28,26.3-20.55,39.45-30.83c-7.31-6.65-22-9.47-33.22,0.05 C15.24,41.2,15.11,55.54,19.44,63.14z"></path><path class="st1" d="M82.91,37.63c-3.07-1.24-3.76-1.39-3.75-1.48c0.26-2.09-1.97-6.25-4.78-9.96c-2.8-3.72-6.19-7-8.27-7.34 c-0.08-0.01-0.04-0.72-0.4-4.02c8.52-0.51,25.72-1.54,25.75-1.54C91.44,13.32,85.74,29.58,82.91,37.63z"></path></svg>