<svg id="Group_31897" data-name="Group 31897" xmlns="http://www.w3.org/2000/svg" xmlns:xlink="http://www.w3.org/1999/xlink" width="103.388" height="33.866" viewBox="0 0 103.388 33.866">
  <defs>
    <linearGradient id="linear-gradient" x1="0.335" y1="0.43" x2="1.333" y2="0.975" gradientUnits="objectBoundingBox">
      <stop offset="0" stop-color="#fc9136"/>
      <stop offset="0.75" stop-color="#fe404c"/>
      <stop offset="1" stop-color="#852d3b"/>
    </linearGradient>
    <linearGradient id="linear-gradient-2" x1="0.379" y1="0.078" x2="0.466" y2="0.238" gradientUnits="objectBoundingBox">
      <stop offset="0" stop-color="#77101a"/>
      <stop offset="1" stop-color="#e91431"/>
    </linearGradient>
    <linearGradient id="linear-gradient-3" x1="0.543" y1="0.825" x2="0.773" y2="1.895" gradientUnits="objectBoundingBox">
      <stop offset="0" stop-color="#b91d2a"/>
      <stop offset="1" stop-color="#fd7c3e"/>
    </linearGradient>
    <linearGradient id="linear-gradient-4" x1="0.61" y1="0.438" x2="0.395" y2="0.146" gradientUnits="objectBoundingBox">
      <stop offset="0" stop-color="#6d0000"/>
      <stop offset="0.385" stop-color="#ab2318" stop-opacity="0.565"/>
      <stop offset="0.793" stop-color="#e64530" stop-opacity="0.157"/>
      <stop offset="1" stop-color="#fd5239" stop-opacity="0"/>
    </linearGradient>
    <clipPath id="clip-path">
      <path id="Path_1106" data-name="Path 1106" d="M166.537,71.741c.091,1.519-3.4,4.736-3.4,4.736a14.546,14.546,0,0,1-9.826,3.442l.661,2.282,2.063,1.939,2.926,1.307c4.08-1.15,9.163-5.616,8.914-10.239a6.2,6.2,0,0,0-1.193-3.286C166.635,71.86,166.588,71.8,166.537,71.741Z" transform="translate(-153.31 -71.741)" fill="none"/>
    </clipPath>
    <linearGradient id="linear-gradient-5" y1="0.5" x2="1" y2="0.5" gradientUnits="objectBoundingBox">
      <stop offset="0" stop-color="#a2222d"/>
      <stop offset="1" stop-color="#e91431"/>
    </linearGradient>
    <linearGradient id="linear-gradient-6" y1="0.5" x2="1" y2="0.5" gradientUnits="objectBoundingBox">
      <stop offset="0" stop-color="#6e0a15"/>
      <stop offset="1" stop-color="#e91431"/>
    </linearGradient>
    <linearGradient id="linear-gradient-7" x1="0.393" y1="0.222" x2="0.656" y2="0.739" gradientUnits="objectBoundingBox">
      <stop offset="0" stop-color="#6e0a15"/>
      <stop offset="1" stop-color="#a70c1e"/>
    </linearGradient>
    <linearGradient id="linear-gradient-8" x1="0.159" y1="0.425" x2="0.756" y2="0.642" gradientUnits="objectBoundingBox">
      <stop offset="0" stop-color="#6e0a15"/>
      <stop offset="1" stop-color="#831214"/>
    </linearGradient>
    <linearGradient id="linear-gradient-9" x1="0.186" y1="0.418" x2="0.596" y2="0.805" gradientUnits="objectBoundingBox">
      <stop offset="0" stop-color="#6e0a15"/>
      <stop offset="1" stop-color="#6f0c0e"/>
    </linearGradient>
    <linearGradient id="linear-gradient-10" x1="0.163" y1="0.5" x2="0.854" y2="0.5" gradientUnits="objectBoundingBox">
      <stop offset="0" stop-color="#400000"/>
      <stop offset="1" stop-color="#f53737"/>
    </linearGradient>
    <linearGradient id="linear-gradient-11" x1="-0.041" y1="0.5" x2="0.455" y2="0.5" xlink:href="#linear-gradient-5"/>
    <linearGradient id="linear-gradient-12" x1="0.442" y1="0.355" x2="0.644" y2="0.861" xlink:href="#linear-gradient-4"/>
    <linearGradient id="linear-gradient-13" x1="0.076" y1="0.679" x2="0.537" y2="0.321" gradientUnits="objectBoundingBox">
      <stop offset="0" stop-color="#88111c"/>
      <stop offset="1" stop-color="#e91431"/>
    </linearGradient>
    <linearGradient id="linear-gradient-14" x1="0.195" y1="0.413" x2="0.772" y2="0.874" gradientUnits="objectBoundingBox">
      <stop offset="0" stop-color="#6e0a15"/>
      <stop offset="1" stop-color="#aa1223"/>
    </linearGradient>
    <linearGradient id="linear-gradient-15" y1="0.5" x2="1" y2="0.5" gradientUnits="objectBoundingBox">
      <stop offset="0" stop-color="#6e0a15"/>
      <stop offset="1" stop-color="#71070a"/>
    </linearGradient>
  </defs>
  <path id="Path_1092" data-name="Path 1092" d="M184.559,52.687s-1.191.275-1.191,1.129h1.191Z" transform="translate(-149.176 -47.476)" fill="#1c1b1b"/>
  <path id="Path_1093" data-name="Path 1093" d="M190.557,53.22c-.292-.462-1.073-1.229-1.6-1.088l-5.588,1.553v.659a.816.816,0,0,0,1.058.78Z" transform="translate(-149.176 -47.345)" fill="#1c1b1b"/>
  <g id="Group_686" data-name="Group 686">
    <path id="Path_1094" data-name="Path 1094" d="M167.8,69.983c-.2-.173-.4-.335-.611-.489l-3.26,4.284c1.7,1.719,2.883,4.345,2.34,8.347,0,0,1.534-1.667,2.232-2.649a10.662,10.662,0,0,0,1.321-2.412A6.2,6.2,0,0,0,167.8,69.983Z" transform="translate(-144.732 -51.318)" fill="url(#linear-gradient)"/>
    <g id="Group_678" data-name="Group 678" transform="translate(12.1 15.139)">
      <path id="Path_1095" data-name="Path 1095" d="M165.758,69.469a13.572,13.572,0,0,0-4.028-2.3l-.046-.017-6.928,2.825c.926.1,10.852,1.465,9.471,11.639,0,0,1.534-1.666,2.232-2.648a10.658,10.658,0,0,0,1.32-2.412A6.2,6.2,0,0,0,165.758,69.469Z" transform="translate(-154.735 -65.92)" fill="url(#linear-gradient-2)"/>
      <path id="Path_1096" data-name="Path 1096" d="M160.49,66.35c-.785-.272-1.578-.526-2.37-.793l-3.3,1.363-.088,1.729Z" transform="translate(-154.729 -65.557)" fill="url(#linear-gradient-3)"/>
    </g>
    <path id="Path_1097" data-name="Path 1097" d="M167.166,70.092c-.048-.042-.1-.079-.147-.12q-.172.083-.349.154c-.869.343-1.75.649-2.63.958-.51.179-1.017.366-1.524.552-.14.052-.218.078-.258.09s-.111.059-.248.126l-.852.416c2.648,1.507,5.23,4.409,4.476,9.966,0,0,1.534-1.667,2.232-2.649a10.88,10.88,0,0,0,1.321-2.412A6.028,6.028,0,0,0,167.166,70.092Z" transform="translate(-144.099 -51.428)" fill="url(#linear-gradient-4)" style="mix-blend-mode: multiply;isolation: isolate"/>
    <g id="Group_684" data-name="Group 684" transform="translate(11.006 19.909)">
      <g id="Group_683" data-name="Group 683" clip-path="url(#clip-path)">
        <g id="Group_682" data-name="Group 682" transform="translate(-0.333 0.902)">
          <path id="Path_1098" data-name="Path 1098" d="M169.546,72.91C163.837,78.978,159,79.519,159,79.519c.479.644,8.871,1.038,10.376-1.642.015-.027.025-.053.04-.08a11.061,11.061,0,0,0,.339-2.728A11.2,11.2,0,0,0,169.546,72.91Z" transform="translate(-154.277 -72.91)" fill="url(#linear-gradient-5)"/>
          <g id="Group_679" data-name="Group 679" transform="translate(1.494 4.967)">
            <path id="Path_1099" data-name="Path 1099" d="M154.914,80.669c-.032-.027-.067-.052-.1-.08A1.146,1.146,0,0,0,154.914,80.669Z" transform="translate(-154.815 -79.632)" fill="#fff"/>
            <path id="Path_1100" data-name="Path 1100" d="M167.156,82.344a10.479,10.479,0,0,0,1.292-2.938c0-.034,0-.057,0-.057A37.485,37.485,0,0,1,157.3,81.043c-.094,0-.187,0-.281-.009-.159-.007-.245-.013-.245-.013l-.054-.01a4.339,4.339,0,0,1-.768-.164c-.107-.032-.2-.063-.293-.1l-.046-.017a2.91,2.91,0,0,1-.674-.348C158.166,83.068,165.772,83.353,167.156,82.344Z" transform="translate(-154.844 -79.349)" fill="url(#linear-gradient-6)"/>
          </g>
          <g id="Group_680" data-name="Group 680" transform="translate(0.012 3.422)">
            <path id="Path_1101" data-name="Path 1101" d="M152.908,77.42c0-.025-.011-.049-.015-.074a2.529,2.529,0,0,0,.124.636c-.012-.047-.019-.1-.029-.143A2.9,2.9,0,0,1,152.908,77.42Z" transform="translate(-152.893 -77.346)" fill="#017276"/>
            <path id="Path_1102" data-name="Path 1102" d="M166.727,82.07c-8.448,1.132-12.33-2.047-12.33-2.047l-.018-.015c-.037-.028-.073-.059-.11-.089-.069-.057-.137-.114-.2-.173-.031-.029-.062-.058-.093-.088a3.621,3.621,0,0,1-.924-1.489c1.459,6.123,9.86,6.565,11.552,6.321A10.739,10.739,0,0,0,166.727,82.07Z" transform="translate(-152.93 -77.534)" fill="url(#linear-gradient-7)"/>
          </g>
          <g id="Group_681" data-name="Group 681" transform="translate(0 3.177)">
            <path id="Path_1103" data-name="Path 1103" d="M152.878,77.029s0,.086.019.235C152.89,77.186,152.878,77.108,152.878,77.029Z" transform="translate(-152.878 -77.029)" fill="#017b80"/>
            <path id="Path_1104" data-name="Path 1104" d="M153.057,78.122a3.036,3.036,0,0,1-.1-.391c.815,5.985,6.874,8.255,8.872,8.367h0a11.138,11.138,0,0,0,2.759-1.71C155.688,83.9,153.565,79.955,153.057,78.122Z" transform="translate(-152.896 -77.189)" fill="url(#linear-gradient-8)"/>
          </g>
          <path id="Path_1105" data-name="Path 1105" d="M161.81,85.938c-6.612-1.615-8.34-6.081-8.782-8.006a2.959,2.959,0,0,1-.147-.864l0-.039c.021.5.059.966.11,1.415a12.373,12.373,0,0,0,2.344,6.116l.015.018c.055.067.114.131.172.2a7.324,7.324,0,0,0,1.349,1.18,6.457,6.457,0,0,0,1.816.832,8.851,8.851,0,0,0,2.637-.644C161.486,86.081,161.647,86.008,161.81,85.938Z" transform="translate(-152.878 -73.852)" fill="url(#linear-gradient-9)"/>
        </g>
      </g>
    </g>
    <path id="Path_1107" data-name="Path 1107" d="M143.73,63.522V60.991c-1.375-.292-4.268-.694-4.645,1a3.2,3.2,0,0,0,.869,2.559c1.055.868,4.5-.346,4.5-.346v-.916l-.629.734Z" transform="translate(-139.05 -49.315)" fill="url(#linear-gradient-10)"/>
    <path id="Path_1108" data-name="Path 1108" d="M153.879,62.464" transform="translate(-142.435 -49.711)" fill="#009fa7"/>
    <path id="Path_1109" data-name="Path 1109" d="M157.4,79.55a5.75,5.75,0,0,1-1.727-1.367,18.953,18.953,0,0,1-1.786-2.1,10.669,10.669,0,0,1-1.492-3.111A13.22,13.22,0,0,1,152,69.323V45.932h-.879a5.074,5.074,0,0,0-5.075,5.075v20.6a8.1,8.1,0,0,0,1.269,4.324,8.466,8.466,0,0,0,3.282,2.988,8.1,8.1,0,0,0,2.8.833,11.118,11.118,0,0,0,2.052,0c.32-.025.64-.058.96-.087Z" transform="translate(-140.644 -45.932)" fill="url(#linear-gradient-11)"/>
    <rect id="Rectangle_71" data-name="Rectangle 71" width="5.947" height="7.112" transform="translate(5.403 17.379)" fill="url(#linear-gradient-12)" style="mix-blend-mode: multiply;isolation: isolate"/>
    <path id="Path_1110" data-name="Path 1110" d="M164.707,61.228a.245.245,0,0,1-.133.326h0l-.663.266-1.024.411-1.322.531-1.557.625-1.726.693-1.831.735-1.872.752-1.848.742c-.587.236-1.173.443-1.76.678-.535.215-.948.392-1.483.607-.464.186-1.051.44-1.514.626l-1.109.446a7.334,7.334,0,0,1-2.6.686,5.744,5.744,0,0,1-1.1-.083,4.715,4.715,0,0,1-1.192-.373,4.248,4.248,0,0,1-1.145-.791,4.891,4.891,0,0,1-.959-1.336,7.492,7.492,0,0,1-.637-2.009,13.525,13.525,0,0,1-.177-2.808q.009-.292.026-.583s-.177,2.564,3.748,1.816a.21.21,0,0,0,.032-.008l15.256-4.917a5.392,5.392,0,0,1,6.593,2.968Z" transform="translate(-139.043 -48.691)" fill="url(#linear-gradient-13)"/>
    <g id="Group_685" data-name="Group 685" transform="translate(0 12.705)">
      <path id="Path_1111" data-name="Path 1111" d="M139.947,63.983c-.034-.021-.066-.042-.1-.063l-.029-.02-.085-.065-.03-.025c-.025-.022-.049-.043-.073-.065l-.03-.029c-.022-.021-.042-.042-.062-.064l-.03-.034c-.018-.021-.035-.041-.051-.062s-.021-.026-.03-.039-.029-.039-.041-.058-.022-.032-.032-.049l-.03-.049-.034-.062-.019-.036c-.014-.029-.027-.057-.04-.086l0-.012a1.912,1.912,0,0,1-.146-.584.945.945,0,0,1-.008-.1V62.5c-.019.357-.026.7-.026,1.021l1.648,4.177,5.106,2.4c.357-.116.708-.255,1.063-.4l1.109-.446c.464-.186,1.051-.44,1.514-.626.424-.17.772-.316,1.163-.477l.042-.019c-7.937-1.319-9.575-3-10.739-4.139Z" transform="translate(-139.044 -62.421)" fill="url(#linear-gradient-14)"/>
      <path id="Path_1112" data-name="Path 1112" d="M139.346,63.428l-.009-.019c-.029-.049-.053-.1-.076-.147l-.015-.033c-.021-.049-.039-.1-.054-.143l-.016-.049c-.012-.042-.023-.081-.032-.12,0-.02-.009-.04-.013-.059s-.011-.057-.015-.083c0-.011,0-.022-.005-.032l.243,3.612c.03.124.062.243.1.36.006.024.012.048.019.071.026.089.056.174.084.258s.048.142.074.212.051.133.077.2q.068.167.146.329c.014.029.027.06.041.089l0,0,4.014,2.558h.005c.123,0,.245.008.368.005a6.979,6.979,0,0,0,2.468-.633l.118-.048C145.247,69.194,140.689,67.3,139.346,63.428Z" transform="translate(-139.058 -62.479)" fill="url(#linear-gradient-15)"/>
      <path id="Path_1113" data-name="Path 1113" d="M143.963,70.356a11.872,11.872,0,0,1-4.841-7.537,1.767,1.767,0,0,1-.046-.417C138.685,69.08,141.863,70.293,143.963,70.356Z" transform="translate(-139.043 -62.402)" fill="#5b090e"/>
    </g>
  </g>
  <path id="Path_1114" data-name="Path 1114" d="M202.282,60.451a4.929,4.929,0,0,1-4.071,1.974,5.21,5.21,0,0,1,0-10.408,4.938,4.938,0,0,1,4.071,1.932V52.1h1.454V62.361h-.529a.924.924,0,0,1-.925-.924Zm-2.294.224a3.753,3.753,0,0,0,2.167-2.546,3.774,3.774,0,1,0-7.434-.9A3.777,3.777,0,0,0,199.988,60.675Z" transform="translate(-151.434 -47.323)" fill="#1c1b1b"/>
  <path id="Path_1115" data-name="Path 1115" d="M215.407,54.428a.945.945,0,0,1-.146.124c1.434,2.347,2.721,4.486,3.864,6.377h-1.06a.925.925,0,0,1-.789-.444l-3.012-4.936L211.5,58.291V60a.924.924,0,0,1-.924.925h-.529V46.857a.924.924,0,0,1,.924-.925h.508v6.73c.021,1.932.021,3.241.021,3.946q2.337-2.275,4.238-4.176l1.662-1.662h1.745C217.983,51.914,216.736,53.14,215.407,54.428Z" transform="translate(-155.275 -45.932)" fill="#1c1b1b"/>
  <path id="Path_1116" data-name="Path 1116" d="M231.576,60.451a4.929,4.929,0,0,1-4.071,1.974,5.21,5.21,0,0,1,0-10.408,4.938,4.938,0,0,1,4.071,1.932V52.1h1.454V62.361H232.5a.924.924,0,0,1-.925-.924Zm-2.294.224a3.75,3.75,0,0,0,2.166-2.546,3.774,3.774,0,1,0-7.433-.9A3.777,3.777,0,0,0,229.282,60.675Z" transform="translate(-158.131 -47.323)" fill="#1c1b1b"/>
  <path id="Path_1117" data-name="Path 1117" d="M242.472,50.772h3.116v1.2h-3.116V60.95h-1.432V51.977h-1.724v-1.2h1.724V48.653a2.985,2.985,0,0,1,3.157-2.721,3.212,3.212,0,0,1,2.119.747l-.727.977a1.811,1.811,0,0,0-1.372-.623,1.785,1.785,0,0,0-1.745,1.662Z" transform="translate(-161.966 -45.932)" fill="#1c1b1b"/>
  <path id="Path_1118" data-name="Path 1118" d="M258.584,52.206h1.433V62.425h-.508a.924.924,0,0,1-.925-.924V60.12a3.475,3.475,0,0,1-3.469,2.451,4.553,4.553,0,0,1-2.7-.872,4.068,4.068,0,0,1-1.787-3.511V52.206h1.454V57.9a3.613,3.613,0,0,0,.893,2.492,3.239,3.239,0,0,0,2.327.976,3.312,3.312,0,0,0,3.281-3.261Z" transform="translate(-164.552 -47.366)" fill="#1c1b1b"/>
  <path id="Path_1119" data-name="Path 1119" d="M266.05,58.609c0-2.182,0-4.341-.02-6.5V46.884a.924.924,0,0,1,.924-.925h.55c0,1.184-.021,2.451-.042,3.76-.021,1.433-.041,2.846-.041,4.279,0,1.371.02,2.742.083,4.071a2.556,2.556,0,0,0,.395,1.308,1.533,1.533,0,0,0,1.246.623,1.348,1.348,0,0,0,.831-.249l.093.283a.9.9,0,0,1-.793,1.177c-.137.01-.257.015-.339.015a2.987,2.987,0,0,1-1.952-.644A2.92,2.92,0,0,1,266.05,58.609Z" transform="translate(-168.073 -45.938)" fill="#1c1b1b"/>
  <path id="Path_1120" data-name="Path 1120" d="M183.922,84.24V70.967a.925.925,0,0,1,.925-.925h.55v7a5.088,5.088,0,1,1,4.092,8.267A4.661,4.661,0,0,1,185.4,83.5v1.662h-.55A.925.925,0,0,1,183.922,84.24Zm1.475-4.226a3.823,3.823,0,0,0,3.76,4.029,3.854,3.854,0,0,0,0-7.706A3.8,3.8,0,0,0,185.4,80.013Z" transform="translate(-149.302 -51.444)" fill="#1c1b1b"/>
  <path id="Path_1121" data-name="Path 1121" d="M209.489,84.7a4.928,4.928,0,0,1-4.071,1.973,5.209,5.209,0,0,1,0-10.407,4.938,4.938,0,0,1,4.071,1.932V76.345h1.454V86.606h-.529a.924.924,0,0,1-.925-.924Zm-2.294.224a3.753,3.753,0,0,0,2.167-2.546,3.774,3.774,0,1,0-7.433-.9A3.776,3.776,0,0,0,207.2,84.92Z" transform="translate(-153.082 -52.866)" fill="#1c1b1b"/>
  <path id="Path_1122" data-name="Path 1122" d="M225.97,76.478v.893c-1.87,2.492-3.76,5.151-5.9,8.08h5.9v1.2H218.3v-.893c1.848-2.534,3.759-5.151,5.9-8.08h-5.9v-1.2Z" transform="translate(-157.163 -52.915)" fill="#1c1b1b"/>
  <path id="Path_1123" data-name="Path 1123" d="M239.484,84.7a4.93,4.93,0,0,1-4.072,1.973,5.209,5.209,0,0,1,0-10.407,4.94,4.94,0,0,1,4.072,1.932V76.345h1.453V86.606h-.529a.924.924,0,0,1-.924-.924Zm-1.334-.338a2.852,2.852,0,0,0,.772-.885,3.791,3.791,0,1,0-.772.885Z" transform="translate(-159.939 -52.866)" fill="#1c1b1b"/>
  <path id="Path_1124" data-name="Path 1124" d="M256.58,84.7a4.928,4.928,0,0,1-4.071,1.973,5.209,5.209,0,0,1,0-10.407,4.938,4.938,0,0,1,4.071,1.932V76.345h1.454V86.606h-.529a.924.924,0,0,1-.925-.924Zm-1.1-.528a1.913,1.913,0,0,0,.367-.417,3.8,3.8,0,1,0-.367.417Z" transform="translate(-163.847 -52.866)" fill="#1c1b1b"/>
  <path id="Path_1125" data-name="Path 1125" d="M266.828,76.42v2.118a4.162,4.162,0,0,1,3.573-2.222,3.443,3.443,0,0,1,.914.1v1.2a2.976,2.976,0,0,0-.872-.125,3.392,3.392,0,0,0-2.576,1.288c-1.059,1.308-.977,2.991-1.039,4.611v3.178H265.4V77.345a.925.925,0,0,1,.925-.925Z" transform="translate(-167.928 -52.878)" fill="#1c1b1b"/>
  <path id="Path_1126" data-name="Path 1126" d="M190.522,58.941c-.13-.172-.238-.329-.329-.473a3.458,3.458,0,0,1-1.237,1l-.021.008a1.294,1.294,0,0,1-.585.116,1.556,1.556,0,0,1-1.425-.936c-.013-.039-.028-.075-.039-.115-.006-.018-.012-.036-.017-.055a2.614,2.614,0,0,1-.061-.32c0-.038-.012-.074-.012-.113l0-.019c0-.029.007-.055.008-.083h-.013V55.5l-.006,0c.006-1.125.014-2.276.014-3.511V45.932h-.529a.925.925,0,0,0-.925.925v3.936h-.005V52h.005c0,2.285.021,3.923.021,6.021a2.367,2.367,0,0,0,.014.275h0a3.329,3.329,0,0,0,.072.424c.007.029.008.059.015.089a2.81,2.81,0,0,0,.174.478,2.765,2.765,0,0,0,1.206,1.329,2.855,2.855,0,0,0,.8.319c.022.005.044.005.067.01a2.784,2.784,0,0,0,.381.055c.062.005.122.007.183.008.106,0,.221,0,.346-.008.019,0,.04,0,.059,0h.018v0a2.97,2.97,0,0,0,1.773-.866A.915.915,0,0,0,190.522,58.941Z" transform="translate(-149.627 -45.932)" fill="#1c1b1b"/>
</svg>
